<svg width="102" height="102" viewBox="0 0 102 102" fill="none" xmlns="http://www.w3.org/2000/svg">
<path d="M79.5599 99.96C82.9399 99.96 85.6799 97.22 85.6799 93.84C85.6799 90.46 82.9399 87.72 79.5599 87.72C76.18 87.72 73.4399 90.46 73.4399 93.84C73.4399 97.22 76.18 99.96 79.5599 99.96Z" stroke="#616161" stroke-width="3" stroke-miterlimit="10"/>
<path d="M53.0399 99.96C56.4199 99.96 59.1599 97.22 59.1599 93.84C59.1599 90.46 56.4199 87.72 53.0399 87.72C49.6599 87.72 46.9199 90.46 46.9199 93.84C46.9199 97.22 49.6599 99.96 53.0399 99.96Z" stroke="#616161" stroke-width="3" stroke-miterlimit="10"/>
<path d="M4.08 12.24C6.33332 12.24 8.16 10.4133 8.16 8.15999C8.16 5.90666 6.33332 4.07999 4.08 4.07999C1.82668 4.07999 0 5.90666 0 8.15999C0 10.4133 1.82668 12.24 4.08 12.24Z" fill="#616161"/>
<path d="M83.6401 87.72C83.6401 87.72 57.7974 87.72 52.4464 87.72C45.4696 87.72 44.4456 84.1622 43.2195 79.509L26.9097 13.6598C25.443 8.71692 23.3764 6.12 17.6746 6.12C17.6746 6.12 7.97648 6.12 4.08008 6.12" stroke="#616161" stroke-width="3" stroke-miterlimit="10" stroke-linecap="round" stroke-linejoin="round"/>
<path d="M32.6401 32.64H95.8801L81.2105 71.4H42.0425" stroke="#616161" stroke-width="3" stroke-miterlimit="10" stroke-linecap="round" stroke-linejoin="round"/>
</svg>
