<svg width="24" height="23" viewBox="0 0 24 23" fill="none" xmlns="http://www.w3.org/2000/svg">
<path d="M2.75012 3.09882L4.83012 3.44208L5.79312 14.3818C5.87012 15.2753 6.65312 15.9608 7.59312 15.958H18.5021C19.3991 15.9599 20.1601 15.3306 20.2871 14.4838L21.2361 8.23066C21.3421 7.53173 20.8331 6.88333 20.1011 6.78226C20.0371 6.77368 5.16412 6.76891 5.16412 6.76891" stroke="white" stroke-width="1.8" stroke-linecap="round" stroke-linejoin="round"/>
<path d="M14.1251 10.293H16.8981" stroke="white" stroke-width="1.8" stroke-linecap="round" stroke-linejoin="round"/>
<path fill-rule="evenodd" clip-rule="evenodd" d="M7.15447 19.2634C7.45547 19.2634 7.69847 19.4961 7.69847 19.7821C7.69847 20.0692 7.45547 20.3018 7.15447 20.3018C6.85347 20.3018 6.61047 20.0692 6.61047 19.7821C6.61047 19.4961 6.85347 19.2634 7.15447 19.2634Z" fill="white" stroke="white" stroke-width="1.8" stroke-linecap="round" stroke-linejoin="round"/>
<path fill-rule="evenodd" clip-rule="evenodd" d="M18.4347 19.2634C18.7357 19.2634 18.9797 19.4961 18.9797 19.7821C18.9797 20.0692 18.7357 20.3018 18.4347 20.3018C18.1337 20.3018 17.8907 20.0692 17.8907 19.7821C17.8907 19.4961 18.1337 19.2634 18.4347 19.2634Z" fill="white" stroke="white" stroke-width="1.8" stroke-linecap="round" stroke-linejoin="round"/>
</svg>
