<svg width="34" height="34" viewBox="0 0 34 34" fill="none" xmlns="http://www.w3.org/2000/svg">
<g opacity="0.5">
<path fill-rule="evenodd" clip-rule="evenodd" d="M23.9846 9.91671C24.0296 9.8163 24.0508 9.70688 24.0463 9.597H24.0833C23.9249 5.81675 20.8036 2.83337 17.007 2.83337C13.2104 2.83337 10.0891 5.81675 9.93067 9.597C9.912 9.70276 9.912 9.81095 9.93067 9.91671H9.81993C8.00448 9.91671 6.06382 11.1152 5.50041 14.3368L4.39861 23.1126C3.49715 29.5559 6.81504 31.1667 11.1471 31.1667H22.8912C27.2107 31.1667 30.4284 28.8342 29.6271 23.1126L28.5378 14.3368C27.8743 11.2054 25.9962 9.91671 24.2058 9.91671H23.9846ZM21.9487 9.91671C21.9093 9.81463 21.8884 9.70637 21.887 9.597C21.887 6.88054 19.6773 4.67842 16.9515 4.67842C14.2257 4.67842 12.0159 6.88054 12.0159 9.597C12.0346 9.70276 12.0346 9.81095 12.0159 9.91671H21.9487ZM12.8874 17.2105C12.1959 17.2105 11.6354 16.6336 11.6354 15.9219C11.6354 15.2102 12.1959 14.6332 12.8874 14.6332C13.5789 14.6332 14.1394 15.2102 14.1394 15.9219C14.1394 16.6336 13.5789 17.2105 12.8874 17.2105ZM19.8362 15.9219C19.8362 16.6336 20.3968 17.2105 21.0882 17.2105C21.7797 17.2105 22.3403 16.6336 22.3403 15.9219C22.3403 15.2102 21.7797 14.6332 21.0882 14.6332C20.3968 14.6332 19.8362 15.2102 19.8362 15.9219Z" fill="#130F26"/>
</g>
</svg>
