<svg width="16" height="17" viewBox="0 0 16 17" fill="none" xmlns="http://www.w3.org/2000/svg">
<path fill-rule="evenodd" clip-rule="evenodd" d="M3.33162 12.3799C3.04762 12.0209 2.70262 11.2869 2.08862 10.3959C1.74062 9.89195 0.877618 8.94295 0.620618 8.46095C0.397618 8.03495 0.421618 7.84395 0.474618 7.49095C0.568618 6.86295 1.21262 6.37395 1.89962 6.43995C2.41862 6.48895 2.85862 6.83195 3.25462 7.15595C3.49362 7.35095 3.78762 7.72995 3.96462 7.94395C4.12762 8.13995 4.16762 8.22095 4.34162 8.45295C4.57162 8.75995 4.64362 8.91195 4.55562 8.57395C4.48462 8.07795 4.36862 7.23095 4.20062 6.48195C4.07262 5.91395 4.04162 5.82495 3.91962 5.38895C3.79062 4.92495 3.72462 4.59995 3.60362 4.10795C3.51962 3.75995 3.36862 3.04895 3.32762 2.64895C3.27062 2.10195 3.24062 1.20995 3.59162 0.799949C3.86662 0.478949 4.49762 0.381949 4.88862 0.579949C5.40062 0.838949 5.69162 1.58295 5.82462 1.87995C6.06362 2.41395 6.21162 3.03095 6.34062 3.84095C6.50462 4.87195 6.80662 6.30295 6.81662 6.60395C6.84062 6.23495 6.74862 5.45795 6.81262 5.10395C6.87062 4.78295 7.14062 4.40995 7.47862 4.30895C7.76462 4.22395 8.09962 4.19295 8.39462 4.25395C8.70762 4.31795 9.03762 4.54195 9.16062 4.75295C9.52262 5.37695 9.52962 6.65195 9.54462 6.58395C9.63062 6.20795 9.61562 5.35495 9.82862 4.99995C9.96862 4.76595 10.3256 4.55495 10.5156 4.52095C10.8096 4.46895 11.1706 4.45295 11.4796 4.51295C11.7286 4.56195 12.0656 4.85795 12.1566 4.99995C12.3746 5.34395 12.4986 6.31695 12.5356 6.65795C12.5506 6.79895 12.6096 6.26595 12.8286 5.92195C13.2346 5.28295 14.6716 5.15895 14.7266 6.56095C14.7516 7.21495 14.7466 7.18495 14.7466 7.62495C14.7466 8.14195 14.7346 8.45295 14.7066 8.82695C14.6756 9.22695 14.5896 10.1309 14.4646 10.5689C14.3786 10.8699 14.0936 11.5469 13.8126 11.9529C13.8126 11.9529 12.7386 13.2029 12.6216 13.7659C12.5036 14.3279 12.5426 14.3319 12.5196 14.7309C12.4966 15.1289 12.6406 15.6529 12.6406 15.6529C12.6406 15.6529 11.8386 15.7569 11.4066 15.6879C11.0156 15.6249 10.5316 14.8469 10.4066 14.6089C10.2346 14.2809 9.86762 14.3439 9.72462 14.5859C9.49962 14.9689 9.01562 15.6559 8.67362 15.6989C8.00562 15.7829 6.61962 15.7299 5.53462 15.7189C5.53462 15.7189 5.71962 14.7079 5.30762 14.3609C5.00262 14.1019 4.47762 13.5769 4.16362 13.3009L3.33162 12.3799Z" fill="white"/>
<path fill-rule="evenodd" clip-rule="evenodd" d="M3.33162 12.3799C3.04762 12.0209 2.70262 11.2869 2.08862 10.3959C1.74062 9.89195 0.877618 8.94295 0.620618 8.46095C0.397618 8.03495 0.421618 7.84395 0.474618 7.49095C0.568618 6.86295 1.21262 6.37395 1.89962 6.43995C2.41862 6.48895 2.85862 6.83195 3.25462 7.15595C3.49362 7.35095 3.78762 7.72995 3.96462 7.94395C4.12762 8.13995 4.16762 8.22095 4.34162 8.45295C4.57162 8.75995 4.64362 8.91195 4.55562 8.57395C4.48462 8.07795 4.36862 7.23095 4.20062 6.48195C4.07262 5.91395 4.04162 5.82495 3.91962 5.38895C3.79062 4.92495 3.72462 4.59995 3.60362 4.10795C3.51962 3.75995 3.36862 3.04895 3.32762 2.64895C3.27062 2.10195 3.24062 1.20995 3.59162 0.799949C3.86662 0.478949 4.49762 0.381949 4.88862 0.579949C5.40062 0.838949 5.69162 1.58295 5.82462 1.87995C6.06362 2.41395 6.21162 3.03095 6.34062 3.84095C6.50462 4.87195 6.80662 6.30295 6.81662 6.60395C6.84062 6.23495 6.74862 5.45795 6.81262 5.10395C6.87062 4.78295 7.14062 4.40995 7.47862 4.30895C7.76462 4.22395 8.09962 4.19295 8.39462 4.25395C8.70762 4.31795 9.03762 4.54195 9.16062 4.75295C9.52262 5.37695 9.52962 6.65195 9.54462 6.58395C9.63062 6.20795 9.61562 5.35495 9.82862 4.99995C9.96862 4.76595 10.3256 4.55495 10.5156 4.52095C10.8096 4.46895 11.1706 4.45295 11.4796 4.51295C11.7286 4.56195 12.0656 4.85795 12.1566 4.99995C12.3746 5.34395 12.4986 6.31695 12.5356 6.65795C12.5506 6.79895 12.6096 6.26595 12.8286 5.92195C13.2346 5.28295 14.6716 5.15895 14.7266 6.56095C14.7516 7.21495 14.7466 7.18495 14.7466 7.62495C14.7466 8.14195 14.7346 8.45295 14.7066 8.82695C14.6756 9.22695 14.5896 10.1309 14.4646 10.5689C14.3786 10.8699 14.0936 11.5469 13.8126 11.9529C13.8126 11.9529 12.7386 13.2029 12.6216 13.7659C12.5036 14.3279 12.5426 14.3319 12.5196 14.7309C12.4966 15.1289 12.6406 15.6529 12.6406 15.6529C12.6406 15.6529 11.8386 15.7569 11.4066 15.6879C11.0156 15.6249 10.5316 14.8469 10.4066 14.6089C10.2346 14.2809 9.86762 14.3439 9.72462 14.5859C9.49962 14.9689 9.01562 15.6559 8.67362 15.6989C8.00562 15.7829 6.61962 15.7299 5.53462 15.7189C5.53462 15.7189 5.71962 14.7079 5.30762 14.3609C5.00262 14.1019 4.47762 13.5769 4.16362 13.3009L3.33162 12.3799Z" stroke="black" stroke-width="0.75" stroke-linecap="round" stroke-linejoin="round"/>
<path d="M11.5664 12.7344V9.27539" stroke="black" stroke-width="0.75" stroke-linecap="round"/>
<path d="M9.55091 12.7462L9.53491 9.27319" stroke="black" stroke-width="0.75" stroke-linecap="round"/>
<path d="M7.55493 9.30481L7.57593 12.7308" stroke="black" stroke-width="0.75" stroke-linecap="round"/>
</svg>
