<svg width="228" height="54" viewBox="0 0 228 54" fill="none" xmlns="http://www.w3.org/2000/svg">
<circle cx="21" cy="27" r="21" fill="#08437A"/>
<circle cx="42" cy="27" r="21" fill="#2990EF"/>
<path d="M98.216 26.968C99.704 27.304 100.88 28.048 101.744 29.2C102.632 30.328 103.076 31.624 103.076 33.088C103.076 35.248 102.332 36.94 100.844 38.164C99.356 39.388 97.268 40 94.58 40H82.016V14.62H94.184C96.776 14.62 98.804 15.196 100.268 16.348C101.756 17.5 102.5 19.12 102.5 21.208C102.5 22.696 102.104 23.944 101.312 24.952C100.544 25.936 99.512 26.608 98.216 26.968ZM89.072 24.7H92.636C94.412 24.7 95.3 23.968 95.3 22.504C95.3 20.992 94.412 20.236 92.636 20.236H89.072V24.7ZM93.176 34.312C94.952 34.312 95.84 33.568 95.84 32.08C95.84 31.312 95.6 30.724 95.12 30.316C94.664 29.908 94.004 29.704 93.14 29.704H89.072V34.312H93.176ZM109.732 17.932C108.484 17.932 107.476 17.596 106.708 16.924C105.964 16.228 105.592 15.364 105.592 14.332C105.592 13.276 105.964 12.4 106.708 11.704C107.476 11.008 108.484 10.66 109.732 10.66C110.956 10.66 111.94 11.008 112.684 11.704C113.452 12.4 113.836 13.276 113.836 14.332C113.836 15.364 113.452 16.228 112.684 16.924C111.94 17.596 110.956 17.932 109.732 17.932ZM113.224 19.804V40H106.168V19.804H113.224ZM124.299 13.36V40H117.243V13.36H124.299ZM135.373 13.36V40H128.317V13.36H135.373ZM138.239 29.884C138.239 27.796 138.611 25.972 139.355 24.412C140.123 22.852 141.167 21.652 142.487 20.812C143.807 19.972 145.271 19.552 146.879 19.552C148.175 19.552 149.327 19.828 150.335 20.38C151.367 20.908 152.171 21.64 152.747 22.576V13.36H159.839V40H152.747V37.192C152.195 38.128 151.415 38.872 150.407 39.424C149.399 39.976 148.211 40.252 146.843 40.252C145.235 40.252 143.771 39.832 142.451 38.992C141.155 38.152 140.123 36.952 139.355 35.392C138.611 33.808 138.239 31.972 138.239 29.884ZM152.783 29.884C152.783 28.588 152.423 27.568 151.703 26.824C151.007 26.08 150.143 25.708 149.111 25.708C148.055 25.708 147.179 26.08 146.483 26.824C145.787 27.544 145.439 28.564 145.439 29.884C145.439 31.18 145.787 32.212 146.483 32.98C147.179 33.724 148.055 34.096 149.111 34.096C150.143 34.096 151.007 33.724 151.703 32.98C152.423 32.236 152.783 31.204 152.783 29.884ZM183.156 29.668C183.156 30.22 183.12 30.772 183.048 31.324H169.692C169.764 32.428 170.064 33.256 170.592 33.808C171.144 34.336 171.84 34.6 172.68 34.6C173.856 34.6 174.696 34.072 175.2 33.016H182.724C182.412 34.408 181.8 35.656 180.888 36.76C180 37.84 178.872 38.692 177.504 39.316C176.136 39.94 174.624 40.252 172.968 40.252C170.976 40.252 169.2 39.832 167.64 38.992C166.104 38.152 164.892 36.952 164.004 35.392C163.14 33.832 162.708 31.996 162.708 29.884C162.708 27.772 163.14 25.948 164.004 24.412C164.868 22.852 166.068 21.652 167.604 20.812C169.164 19.972 170.952 19.552 172.968 19.552C174.96 19.552 176.724 19.96 178.26 20.776C179.796 21.592 180.996 22.768 181.86 24.304C182.724 25.816 183.156 27.604 183.156 29.668ZM175.956 27.904C175.956 27.04 175.668 26.368 175.092 25.888C174.516 25.384 173.796 25.132 172.932 25.132C172.068 25.132 171.36 25.372 170.808 25.852C170.256 26.308 169.896 26.992 169.728 27.904H175.956ZM194.647 40.252C192.823 40.252 191.191 39.952 189.751 39.352C188.335 38.728 187.207 37.888 186.367 36.832C185.551 35.752 185.095 34.54 184.999 33.196H191.839C191.935 33.844 192.235 34.348 192.739 34.708C193.243 35.068 193.867 35.248 194.611 35.248C195.187 35.248 195.643 35.128 195.979 34.888C196.315 34.648 196.483 34.336 196.483 33.952C196.483 33.448 196.207 33.076 195.655 32.836C195.103 32.596 194.191 32.332 192.919 32.044C191.479 31.756 190.279 31.432 189.319 31.072C188.359 30.712 187.519 30.124 186.799 29.308C186.103 28.492 185.755 27.388 185.755 25.996C185.755 24.796 186.079 23.716 186.727 22.756C187.375 21.772 188.323 20.992 189.571 20.416C190.843 19.84 192.367 19.552 194.143 19.552C196.783 19.552 198.859 20.2 200.371 21.496C201.883 22.792 202.759 24.496 202.999 26.608H196.627C196.507 25.96 196.219 25.468 195.763 25.132C195.331 24.772 194.743 24.592 193.999 24.592C193.423 24.592 192.979 24.7 192.667 24.916C192.379 25.132 192.235 25.432 192.235 25.816C192.235 26.296 192.511 26.668 193.063 26.932C193.615 27.172 194.503 27.424 195.727 27.688C197.191 28 198.403 28.348 199.363 28.732C200.347 29.116 201.199 29.74 201.919 30.604C202.663 31.444 203.035 32.596 203.035 34.06C203.035 35.236 202.687 36.292 201.991 37.228C201.319 38.164 200.347 38.908 199.075 39.46C197.827 39.988 196.351 40.252 194.647 40.252ZM219.14 40L213.56 31.72V40H206.504V13.36H213.56V27.724L219.14 19.804H227.6L219.644 29.956L227.744 40H219.14Z" fill="#031A30"/>
</svg>
