<svg width="28" height="28" viewBox="0 0 28 28" fill="none" xmlns="http://www.w3.org/2000/svg">
<path fill-rule="evenodd" clip-rule="evenodd" d="M20.8333 23.82C23.0185 23.82 24.7907 22.049 24.7918 19.8638V19.8615V16.7115C23.3487 16.7115 22.1797 15.5425 22.1785 14.0993C22.1785 12.6573 23.3475 11.4871 24.7907 11.4871H24.7918V8.33712C24.7942 6.15079 23.0243 4.37746 20.8392 4.37512H20.8322H7.16816C4.98183 4.37512 3.20966 6.14612 3.2085 8.33246V8.33362V11.5886C4.6015 11.5396 5.76933 12.6293 5.81833 14.0223C5.8195 14.048 5.82066 14.0736 5.82066 14.0993C5.82183 15.5401 4.65633 16.7091 3.2155 16.7115H3.2085V19.8615C3.20733 22.0466 4.9795 23.82 7.16466 23.82H7.16583H20.8333Z" stroke="#2990EF" stroke-width="2" stroke-linecap="round" stroke-linejoin="round"/>
<path fill-rule="evenodd" clip-rule="evenodd" d="M14.4331 10.5736L15.1518 12.0285C15.2218 12.1708 15.3571 12.27 15.5146 12.2933L17.1211 12.5278C17.5189 12.5861 17.6764 13.0738 17.3894 13.3526L16.2274 14.4843C16.1131 14.5951 16.0618 14.755 16.0874 14.9125L16.3616 16.5108C16.4293 16.9063 16.0151 17.2073 15.6604 17.0206L14.2243 16.2658C14.0831 16.1911 13.9151 16.1911 13.7739 16.2658L12.3389 17.0206C11.9831 17.2073 11.5689 16.9063 11.6366 16.5108L11.9108 14.9125C11.9376 14.755 11.8851 14.5951 11.7708 14.4843L10.6099 13.3526C10.3229 13.0738 10.4804 12.5861 10.8771 12.5278L12.4836 12.2933C12.6411 12.27 12.7776 12.1708 12.8476 12.0285L13.5651 10.5736C13.7424 10.2143 14.2558 10.2143 14.4331 10.5736Z" stroke="#2990EF" stroke-width="2" stroke-linecap="round" stroke-linejoin="round"/>
</svg>
